<svg xmlns="http://www.w3.org/2000/svg" xmlns:xlink="http://www.w3.org/1999/xlink" width="1920" height="3585" viewBox="0 0 1920 3585"><link xmlns="" type="text/css" rel="stylesheet" id="dark-mode-custom-link"/><link xmlns="" type="text/css" rel="stylesheet" id="dark-mode-general-link"/><style xmlns="" lang="en" type="text/css" id="dark-mode-custom-style"/><style xmlns="" lang="en" type="text/css" id="dark-mode-native-style"/>
    <defs>
      <style>
        .cls-1, .cls-25 {
          fill: #fff;
        }
  
        .cls-11, .cls-2, .cls-31 {
          fill: #3498db;
        }
  
        .cls-3 {
          clip-path: url(#clip-Accueil);
        }
  
        .cls-4 {
          clip-path: url(#clip-path);
        }
  
        .cls-5 {
          fill: #ff5614;
        }
  
        .cls-6 {
          fill: #a8cba6;
        }
  
        .cls-22, .cls-26, .cls-7 {
          fill: rgba(0,0,0,0);
        }
  
        .cls-8 {
          fill: #98df5f;
        }
  
        .cls-13, .cls-16, .cls-9 {
          fill: rgba(0,0,0,0.87);
        }
  
        .cls-9 {
          font-size: 20px;
        }
  
        .cls-10, .cls-11, .cls-13, .cls-16, .cls-20, .cls-9 {
          font-family: Roboto-Medium, Roboto;
          font-weight: 500;
        }
  
        .cls-10, .cls-20 {
          fill: rgba(255,255,255,0.87);
        }
  
        .cls-10 {
          font-size: 22px;
        }
  
        .cls-11, .cls-19 {
          font-size: 29px;
        }
  
        .cls-12 {
          isolation: isolate;
        }
  
        .cls-13 {
          font-size: 56px;
        }
  
        .cls-14 {
          clip-path: url(#clip-path-2);
        }
  
        .cls-15 {
          clip-path: url(#clip-path-3);
        }
  
        .cls-16 {
          font-size: 47px;
        }
  
        .cls-17, .cls-19, .cls-30 {
          fill: rgba(33,33,33,0.87);
        }
  
        .cls-17 {
          font-size: 27px;
        }
  
        .cls-17, .cls-19, .cls-30, .cls-31 {
          font-family: Roboto-Regular, Roboto;
        }
  
        .cls-18 {
          fill: none;
        }
  
        .cls-20 {
          font-size: 33px;
        }
  
        .cls-21 {
          fill: #f2f7fb;
        }
  
        .cls-22, .cls-26 {
          stroke: #d3d8e0;
        }
  
        .cls-23 {
          fill: #dbe1e6;
        }
  
        .cls-23, .cls-24, .cls-25, .cls-26 {
          fill-rule: evenodd;
        }
  
        .cls-24 {
          fill: #d3d8e0;
        }
  
        .cls-27 {
          fill: #f5f6f7;
        }
  
        .cls-28 {
          fill: #dfe2f2;
        }
  
        .cls-29 {
          fill: url(#pattern);
        }
  
        .cls-30 {
          font-size: 25px;
        }
  
        .cls-31 {
          font-size: 26px;
        }
  
        .cls-32 {
          filter: url(#Rectangle_322);
        }
  
        .cls-33 {
          filter: url(#Rectangle_321);
        }
  
        .cls-34 {
          filter: url(#Rectangle_320);
        }
      </style>
      <filter id="Rectangle_320" x="164.35" y="1538.295" width="237.019" height="238.781" filterUnits="userSpaceOnUse">
        <feOffset dy="7" input="SourceAlpha"/>
        <feGaussianBlur stdDeviation="15" result="blur"/>
        <feFlood flood-color="#aaa" flood-opacity="0.161"/>
        <feComposite operator="in" in2="blur"/>
        <feComposite in="SourceGraphic"/>
      </filter>
      <filter id="Rectangle_321" x="813.5" y="1555.165" width="237" height="238.763" filterUnits="userSpaceOnUse">
        <feOffset dy="7" input="SourceAlpha"/>
        <feGaussianBlur stdDeviation="15" result="blur-2"/>
        <feFlood flood-color="#aaa" flood-opacity="0.161"/>
        <feComposite operator="in" in2="blur-2"/>
        <feComposite in="SourceGraphic"/>
      </filter>
      <clipPath id="clip-path">
        <rect id="Rectangle_317" data-name="Rectangle 317" class="cls-1" width="1840" height="100" transform="translate(54)"/>
      </clipPath>
      <clipPath id="clip-path-2">
        <g class="cls-34" transform="matrix(1, 0, 0, 1, 0, 0)">
          <rect id="Rectangle_320-2" data-name="Rectangle 320" class="cls-2" width="147.019" height="148.781"/>
        </g>
      </clipPath>
      <clipPath id="clip-path-3">
        <g class="cls-33" transform="matrix(1, 0, 0, 1, 0, 0)">
          <rect id="Rectangle_321-2" data-name="Rectangle 321" class="cls-2" width="147" height="148.763"/>
        </g>
      </clipPath>
      <filter id="Rectangle_322" x="1247.477" y="1519.735" width="614.673" height="620.964" filterUnits="userSpaceOnUse">
        <feOffset dy="7" input="SourceAlpha"/>
        <feGaussianBlur stdDeviation="15" result="blur-3"/>
        <feFlood flood-color="#aaa" flood-opacity="0.161"/>
        <feComposite operator="in" in2="blur-3"/>
        <feComposite in="SourceGraphic"/>
      </filter>
      <pattern id="pattern" preserveAspectRatio="none" width="100%" height="100%" viewBox="0 0 1745 1139">
        <image width="1745" height="1139" xlink:href="Accueil-image.png"/>
      </pattern>
      <clipPath id="clip-Accueil">
        <rect width="1920" height="3585"/>
      </clipPath>
    </defs>
    <g id="Accueil" class="cls-3">
      <rect class="cls-1" width="1920" height="3585"/>
      
      
      <g id="_02_header-h3-slogan-button-imac-image-web_2.35.45_pm" data-name="02_header-h3-slogan-button-imac-image-web 2.35.45 pm" transform="translate(5 129)">
        <rect id="Rectangle_314" data-name="Rectangle 314" class="cls-1" width="1920" height="1078" transform="translate(0 -6)"/>
        
        
        
        <path id="Path_47" data-name="Path 47" class="cls-21" d="M0,0H938.541V1013.2H199.973C89.531,1013.2,0,923.667,0,813.225Z" transform="translate(981.202)"/>
        <g id="Group_65" data-name="Group 65" transform="translate(888.101 728.101)">
          <circle id="Ellipse_36" data-name="Ellipse 36" class="cls-5" cx="2.5" cy="2.5" r="2.5" transform="translate(37.898 -0.101)"/>
          <circle id="Ellipse_37" data-name="Ellipse 37" class="cls-5" cx="2.5" cy="2.5" r="2.5" transform="translate(-0.102 -0.101)"/>
          <circle id="Ellipse_38" data-name="Ellipse 38" class="cls-5" cx="2.5" cy="2.5" r="2.5" transform="translate(37.898 37.899)"/>
          <circle id="Ellipse_39" data-name="Ellipse 39" class="cls-5" cx="2.5" cy="2.5" r="2.5" transform="translate(-0.102 37.899)"/>
          <ellipse id="Ellipse_40" data-name="Ellipse 40" class="cls-5" cx="2.5" cy="3" rx="2.5" ry="3" transform="translate(37.898 73.899)"/>
          <ellipse id="Ellipse_41" data-name="Ellipse 41" class="cls-5" cx="2.5" cy="3" rx="2.5" ry="3" transform="translate(-0.102 73.899)"/>
          <ellipse id="Ellipse_42" data-name="Ellipse 42" class="cls-5" cx="2.5" cy="3.5" rx="2.5" ry="3.5" transform="translate(37.898 110.899)"/>
          <ellipse id="Ellipse_43" data-name="Ellipse 43" class="cls-5" cx="2.5" cy="3.5" rx="2.5" ry="3.5" transform="translate(-0.102 110.899)"/>
          <circle id="Ellipse_44" data-name="Ellipse 44" class="cls-5" cx="2.5" cy="2.5" r="2.5" transform="translate(37.898 148.899)"/>
          <circle id="Ellipse_45" data-name="Ellipse 45" class="cls-5" cx="2.5" cy="2.5" r="2.5" transform="translate(-0.102 148.899)"/>
          <circle id="Ellipse_46" data-name="Ellipse 46" class="cls-5" cx="2.5" cy="2.5" r="2.5" transform="translate(37.898 185.899)"/>
          <circle id="Ellipse_47" data-name="Ellipse 47" class="cls-5" cx="2.5" cy="2.5" r="2.5" transform="translate(-0.102 185.899)"/>
          <circle id="Ellipse_48" data-name="Ellipse 48" class="cls-5" cx="2.5" cy="2.5" r="2.5" transform="translate(70.898 185.899)"/>
          <circle id="Ellipse_49" data-name="Ellipse 49" class="cls-5" cx="2.5" cy="2.5" r="2.5" transform="translate(70.898 148.899)"/>
          <ellipse id="Ellipse_50" data-name="Ellipse 50" class="cls-5" cx="2.5" cy="3.5" rx="2.5" ry="3.5" transform="translate(70.898 110.899)"/>
          <ellipse id="Ellipse_51" data-name="Ellipse 51" class="cls-5" cx="2.5" cy="3" rx="2.5" ry="3" transform="translate(70.898 73.899)"/>
          <circle id="Ellipse_52" data-name="Ellipse 52" class="cls-5" cx="2.5" cy="2.5" r="2.5" transform="translate(70.898 37.899)"/>
          <circle id="Ellipse_53" data-name="Ellipse 53" class="cls-5" cx="2.5" cy="2.5" r="2.5" transform="translate(70.898 -0.101)"/>
          <ellipse id="Ellipse_54" data-name="Ellipse 54" class="cls-5" cx="3.5" cy="2.5" rx="3.5" ry="2.5" transform="translate(106.898 -0.101)"/>
          <ellipse id="Ellipse_55" data-name="Ellipse 55" class="cls-5" cx="3.5" cy="2.5" rx="3.5" ry="2.5" transform="translate(106.898 37.899)"/>
          <ellipse id="Ellipse_56" data-name="Ellipse 56" class="cls-5" cx="3.5" cy="3" rx="3.5" ry="3" transform="translate(106.898 73.899)"/>
          <circle id="Ellipse_57" data-name="Ellipse 57" class="cls-5" cx="3.5" cy="3.5" r="3.5" transform="translate(106.898 110.899)"/>
          <ellipse id="Ellipse_58" data-name="Ellipse 58" class="cls-5" cx="3.5" cy="2.5" rx="3.5" ry="2.5" transform="translate(106.898 148.899)"/>
          <ellipse id="Ellipse_59" data-name="Ellipse 59" class="cls-5" cx="3" cy="2.5" rx="3" ry="2.5" transform="translate(144.899 148.899)"/>
          <ellipse id="Ellipse_60" data-name="Ellipse 60" class="cls-5" cx="3" cy="3.5" rx="3" ry="3.5" transform="translate(144.899 110.899)"/>
          <circle id="Ellipse_61" data-name="Ellipse 61" class="cls-5" cx="3" cy="3" r="3" transform="translate(144.899 73.899)"/>
          <ellipse id="Ellipse_62" data-name="Ellipse 62" class="cls-5" cx="3" cy="2.5" rx="3" ry="2.5" transform="translate(144.899 37.899)"/>
          <ellipse id="Ellipse_63" data-name="Ellipse 63" class="cls-5" cx="3" cy="2.5" rx="3" ry="2.5" transform="translate(144.899 -0.101)"/>
          <circle id="Ellipse_64" data-name="Ellipse 64" class="cls-5" cx="2.5" cy="2.5" r="2.5" transform="translate(181.898 -0.101)"/>
          <circle id="Ellipse_65" data-name="Ellipse 65" class="cls-5" cx="2.5" cy="2.5" r="2.5" transform="translate(219.898 -0.101)"/>
          <circle id="Ellipse_66" data-name="Ellipse 66" class="cls-5" cx="2.5" cy="2.5" r="2.5" transform="translate(256.899 -0.101)"/>
          <circle id="Ellipse_67" data-name="Ellipse 67" class="cls-5" cx="2.5" cy="2.5" r="2.5" transform="translate(181.898 37.899)"/>
          <circle id="Ellipse_68" data-name="Ellipse 68" class="cls-5" cx="2.5" cy="2.5" r="2.5" transform="translate(219.898 37.899)"/>
          <circle id="Ellipse_69" data-name="Ellipse 69" class="cls-5" cx="2.5" cy="2.5" r="2.5" transform="translate(256.899 37.899)"/>
          <ellipse id="Ellipse_70" data-name="Ellipse 70" class="cls-5" cx="2.5" cy="3" rx="2.5" ry="3" transform="translate(181.898 73.899)"/>
          <ellipse id="Ellipse_71" data-name="Ellipse 71" class="cls-5" cx="2.5" cy="3" rx="2.5" ry="3" transform="translate(219.898 73.899)"/>
          <ellipse id="Ellipse_72" data-name="Ellipse 72" class="cls-5" cx="2.5" cy="3" rx="2.5" ry="3" transform="translate(256.899 73.899)"/>
          <ellipse id="Ellipse_73" data-name="Ellipse 73" class="cls-5" cx="2.5" cy="3.5" rx="2.5" ry="3.5" transform="translate(181.898 110.899)"/>
          <ellipse id="Ellipse_74" data-name="Ellipse 74" class="cls-5" cx="2.5" cy="3.5" rx="2.5" ry="3.5" transform="translate(219.898 110.899)"/>
          <ellipse id="Ellipse_75" data-name="Ellipse 75" class="cls-5" cx="2.5" cy="3.5" rx="2.5" ry="3.5" transform="translate(256.899 110.899)"/>
          <circle id="Ellipse_76" data-name="Ellipse 76" class="cls-5" cx="2.5" cy="2.5" r="2.5" transform="translate(181.898 148.899)"/>
          <circle id="Ellipse_77" data-name="Ellipse 77" class="cls-5" cx="2.5" cy="2.5" r="2.5" transform="translate(219.898 148.899)"/>
          <circle id="Ellipse_78" data-name="Ellipse 78" class="cls-5" cx="2.5" cy="2.5" r="2.5" transform="translate(256.899 148.899)"/>
          <ellipse id="Ellipse_79" data-name="Ellipse 79" class="cls-5" cx="3.5" cy="2.5" rx="3.5" ry="2.5" transform="translate(106.898 185.899)"/>
          <ellipse id="Ellipse_80" data-name="Ellipse 80" class="cls-5" cx="3" cy="2.5" rx="3" ry="2.5" transform="translate(144.899 185.899)"/>
          <circle id="Ellipse_81" data-name="Ellipse 81" class="cls-5" cx="2.5" cy="2.5" r="2.5" transform="translate(181.898 185.899)"/>
          <circle id="Ellipse_82" data-name="Ellipse 82" class="cls-5" cx="2.5" cy="2.5" r="2.5" transform="translate(219.898 185.899)"/>
          <circle id="Ellipse_83" data-name="Ellipse 83" class="cls-5" cx="2.5" cy="2.5" r="2.5" transform="translate(256.899 185.899)"/>
        </g>
        <g id="Group_71" data-name="Group 71" transform="translate(1063.938 219.931)">
          <g id="Group_68" data-name="Group 68">
            <g id="Group_66" data-name="Group 66" transform="translate(0 459.677)">
              <path id="Path_48" data-name="Path 48" class="cls-1" d="M1,442.208a17.864,17.864,0,0,0,17.864,17.864H754.948a17.864,17.864,0,0,0,17.865-17.864V387.531H1Z" transform="translate(-1 -387.531)"/>
            </g>
            <path id="Path_49" data-name="Path 49" class="cls-22" d="M1,442.208a17.864,17.864,0,0,0,17.864,17.864H754.948a17.864,17.864,0,0,0,17.865-17.864V387.531H1Z" transform="translate(-1 72.146)"/>
            <path id="Path_50" data-name="Path 50" class="cls-1" d="M1,18.864A17.864,17.864,0,0,1,18.864,1H754.948a17.864,17.864,0,0,1,17.864,17.864v442.2H1Z" transform="translate(-1 -1)"/>
            <path id="Path_51" data-name="Path 51" class="cls-22" d="M1,18.864A17.864,17.864,0,0,1,18.864,1H754.948a17.864,17.864,0,0,1,17.864,17.864v442.2H1Z" transform="translate(-1 -1)"/>
            <path id="Path_52" data-name="Path 52" class="cls-23" d="M317.262,183h22.017a3.294,3.294,0,0,1,3.262,3.262v22.017a3.3,3.3,0,0,1-3.262,3.262H317.262A3.309,3.309,0,0,1,314,208.279V186.262A3.3,3.3,0,0,1,317.262,183Zm21.2,23.649c.145,0,.5-.2.816-.816a2.114,2.114,0,0,0,0-.816l-4.077-5.709c.141.035-.235-.217-.816,0-.275-.388-.719-.3-.816,0l-4.077,2.446a1.083,1.083,0,0,1-1.632-.815l-4.077-4.894a1.656,1.656,0,0,0-1.632-.815,3.475,3.475,0,0,0-1.149.533c-.163.1-.323.2-.481.281l-2.446,8.971a2.7,2.7,0,0,0,0,.816c.409.667.724.816.815.816Z" transform="translate(58.232 33.442)"/>
            <path id="Path_53" data-name="Path 53" class="cls-24" d="M238.458,539c-12.092,0-11.041-3-11.041-3v-3.3s-1.577,1.615,11.035,2.25c30.563,0,69.832.117,106.179.259,36.347-.133,75.615-.259,106.178-.259,12.613-.635,11.035-2.25,11.035-2.25V536s1.052,3-11.041,3c-4.4,0-55.423-.181-106.171-.365C293.881,538.822,242.852,539,238.458,539Z" transform="translate(41.835 99.618)"/>
            <g id="Group_67" data-name="Group 67" transform="translate(269.13 531.932)">
              <path id="Path_54" data-name="Path 54" class="cls-25" d="M344.827,552.793H240.993c-23.66,0-9.465-6.827-9.465-6.827s18.4-11.029,24.186-15.755,6.835-21.532,6.835-21.532l6.308-60.392H420.8l6.31,60.392s1.052,16.806,6.835,21.532,24.185,15.755,24.185,15.755,14.2,6.827-9.465,6.827Z" transform="translate(-227.305 -448.287)"/>
            </g>
            <path id="Path_55" data-name="Path 55" class="cls-26" d="M344.827,552.793H240.993c-23.66,0-9.465-6.827-9.465-6.827s18.4-11.029,24.186-15.755,6.835-21.532,6.835-21.532l6.308-60.392H420.8l6.31,60.392s1.052,16.806,6.835,21.532,24.185,15.755,24.185,15.755,14.2,6.827-9.465,6.827Z" transform="translate(41.826 83.645)"/>
          </g>
          <g id="Group_70" data-name="Group 70" transform="translate(28.77 32.109)">
            <rect id="Rectangle_316" data-name="Rectangle 316" class="cls-27" width="712.126" height="402.925"/>
            <g id="Group_69" data-name="Group 69" transform="translate(321.188 166.48)">
              <path id="Path_56" data-name="Path 56" class="cls-7" d="M0,0H70.192V70.192H0Z"/>
              <path id="Path_57" data-name="Path 57" class="cls-28" d="M55.645,49.794V8.85A5.866,5.866,0,0,0,49.794,3H8.85A5.866,5.866,0,0,0,3,8.85V49.794a5.866,5.866,0,0,0,5.85,5.85H49.794a5.866,5.866,0,0,0,5.851-5.85ZM19.086,33.709l7.312,8.8,10.236-13.19L49.794,46.87H8.85Z" transform="translate(5.773 5.773)"/>
              <ellipse id="Ellipse_84" data-name="Ellipse 84" class="cls-1" cx="3.568" cy="4.162" rx="3.568" ry="4.162" transform="translate(19.624 22.596)"/>
            </g>
            <rect id="Image_123" data-name="Image 123" class="cls-29" width="617" height="403" transform="translate(47.292 -0.04)"/>
          </g>
        </g>
        
        
      </g>
    </g>
  </svg>