<svg id="Date_de_livraison" data-name="Date de livraison" xmlns="http://www.w3.org/2000/svg" width="1188.266" height="133.532" viewBox="0 0 1188.266 133.532">
  <g id="Group_2957" data-name="Group 2957" transform="translate(0 0)">
    <g id="Path_350" data-name="Path 350" transform="translate(0 1.69)" fill="#fff">
      <path d="M 1122.344970703125 131.341796875 L 65.92093658447266 131.341796875 C 57.08893585205078 131.341796875 48.52139663696289 129.6120910644531 40.45631790161133 126.2008666992188 C 36.58001327514648 124.5613327026367 32.84124374389648 122.5319442749023 29.34385681152344 120.1691741943359 C 25.87954902648926 117.8288650512695 22.62185859680176 115.1410217285156 19.66139602661133 112.1804046630859 C 16.70078086853027 109.2199478149414 14.01293468475342 105.9622497558594 11.67262649536133 102.4979476928711 C 9.309857368469238 99.00055694580078 7.280473232269287 95.26178741455078 5.640934467315674 91.38548278808594 C 2.229703903198242 83.32040405273438 0.5000115036964417 74.75286865234375 0.5000115036964417 65.92086791992188 C 0.5000115036964417 57.0888671875 2.229703903198242 48.52132797241211 5.640934467315674 40.45625305175781 C 7.280473232269287 36.5799446105957 9.309857368469238 32.8411750793457 11.67262649536133 29.34379005432129 C 14.01293468475342 25.87948417663574 16.70078086853027 22.62179183959961 19.66139602661133 19.66132926940918 C 22.62185859680176 16.70071411132813 25.87954902648926 14.01286792755127 29.34385681152344 11.6725606918335 C 32.84124374389648 9.30979061126709 36.58001327514648 7.280406475067139 40.45631790161133 5.640867710113525 C 48.52139663696289 2.229637145996094 57.08893585205078 0.4999448359012604 65.92093658447266 0.4999448359012604 L 1122.344970703125 0.4999448359012604 C 1131.176879882813 0.4999448359012604 1139.744506835938 2.229637145996094 1147.8095703125 5.640867710113525 C 1151.68603515625 7.280406475067139 1155.4248046875 9.30979061126709 1158.922119140625 11.6725606918335 C 1162.386352539063 14.01286792755127 1165.64404296875 16.70071411132813 1168.604614257813 19.66132926940918 C 1171.565063476563 22.62179183959961 1174.2529296875 25.87948417663574 1176.59326171875 29.34379005432129 C 1178.9560546875 32.8411750793457 1180.9853515625 36.5799446105957 1182.624877929688 40.45625305175781 C 1186.0361328125 48.52132797241211 1187.765869140625 57.0888671875 1187.765869140625 65.92086791992188 C 1187.765869140625 74.75286865234375 1186.0361328125 83.32040405273438 1182.624877929688 91.38548278808594 C 1180.9853515625 95.26178741455078 1178.9560546875 99.00055694580078 1176.59326171875 102.4979476928711 C 1174.2529296875 105.9622497558594 1171.565063476563 109.2199478149414 1168.604614257813 112.1804046630859 C 1165.64404296875 115.1410217285156 1162.386352539063 117.8288650512695 1158.922119140625 120.1691741943359 C 1155.4248046875 122.5319442749023 1151.68603515625 124.5613327026367 1147.8095703125 126.2008666992188 C 1139.744506835938 129.6120910644531 1131.176879882813 131.341796875 1122.344970703125 131.341796875 Z" stroke="none"/>
      <path d="M 65.9208984375 0.99993896484375 C 57.1561279296875 0.99993896484375 48.6541748046875 2.71624755859375 40.651123046875 6.101325988769531 C 36.804443359375 7.728408813476563 33.0943603515625 9.742095947265625 29.6236572265625 12.08686828613281 C 26.1859130859375 14.40948486328125 22.952880859375 17.07686614990234 20.014892578125 20.01486968994141 C 17.0767822265625 22.95286560058594 14.409423828125 26.185791015625 12.0869140625 29.62363433837891 C 9.7421875 33.09425354003906 7.728271484375 36.80440521240234 6.1014404296875 40.65102386474609 C 2.71630859375 48.65409851074219 1 57.15609741210938 1 65.92086791992188 C 1 74.68563842773438 2.71630859375 83.18763732910156 6.1014404296875 91.19071960449219 C 7.728271484375 95.03733062744141 9.7421875 98.74748229980469 12.0869140625 102.2181015014648 C 14.409423828125 105.6559448242188 17.0767822265625 108.8888702392578 20.014892578125 111.8268661499023 C 22.952880859375 114.7648696899414 26.1859130859375 117.4322509765625 29.6236572265625 119.7548675537109 C 33.0943603515625 122.0996398925781 36.804443359375 124.1133270263672 40.651123046875 125.7404098510742 C 48.6541748046875 129.12548828125 57.1561279296875 130.841796875 65.9208984375 130.841796875 L 1122.344970703125 130.841796875 C 1131.109741210938 130.841796875 1139.611694335938 129.12548828125 1147.61474609375 125.7404098510742 C 1151.46142578125 124.1133270263672 1155.171508789063 122.0996398925781 1158.642211914063 119.7548675537109 C 1162.079956054688 117.4322509765625 1165.31298828125 114.7648696899414 1168.2509765625 111.8268661499023 C 1171.189086914063 108.8888702392578 1173.8564453125 105.6559448242188 1176.178955078125 102.2181015014648 C 1178.523681640625 98.74748229980469 1180.53759765625 95.03733062744141 1182.164428710938 91.19071960449219 C 1185.549560546875 83.18763732910156 1187.265869140625 74.68563842773438 1187.265869140625 65.92086791992188 C 1187.265869140625 57.15609741210938 1185.549560546875 48.65409851074219 1182.164428710938 40.65102386474609 C 1180.53759765625 36.80440521240234 1178.523681640625 33.09425354003906 1176.178955078125 29.62363433837891 C 1173.8564453125 26.185791015625 1171.189086914063 22.95286560058594 1168.2509765625 20.01486968994141 C 1165.31298828125 17.07686614990234 1162.079956054688 14.40948486328125 1158.642211914063 12.08686828613281 C 1155.171508789063 9.742095947265625 1151.46142578125 7.728408813476563 1147.61474609375 6.101325988769531 C 1139.611694335938 2.71624755859375 1131.109741210938 0.99993896484375 1122.344970703125 0.99993896484375 L 65.9208984375 0.99993896484375 M 65.9208984375 -6.103515625e-05 L 1122.344970703125 -6.103515625e-05 C 1158.752197265625 -6.103515625e-05 1188.265869140625 29.5137939453125 1188.265869140625 65.92086791992188 C 1188.265869140625 102.3279418945313 1158.752197265625 131.841796875 1122.344970703125 131.841796875 L 65.9208984375 131.841796875 C 29.513671875 131.841796875 0 102.3279418945313 0 65.92086791992188 C 0 29.5137939453125 29.513671875 -6.103515625e-05 65.9208984375 -6.103515625e-05 Z" stroke="none" fill="#d11c48"/>
    </g>
    <path id="Path_349" data-name="Path 349" d="M0,0H69.3a65.921,65.921,0,0,1,0,131.842H65.921A65.921,65.921,0,0,1,0,65.921Z" transform="translate(1053.043 0)" fill="#d11c48"/>
    <text id="Date_de_livraison-2" data-name="Date de livraison" transform="translate(109.996 90.542)" fill="#d11c48" font-size="69" font-family="SegoeUI-Bold, Segoe UI" font-weight="700"><tspan x="0" y="0">Date de livraison</tspan></text>
  </g>
  <path id="Icon_material-date-range" data-name="Icon material-date-range" d="M21.555,29.833H15.37v6.185h6.185Zm12.37,0H27.74v6.185h6.185Zm12.37,0H40.11v6.185h6.185ZM52.48,8.185H49.387V2H43.2V8.185H18.463V2H12.278V8.185H9.185A6.157,6.157,0,0,0,3.031,14.37L3,57.665A6.183,6.183,0,0,0,9.185,63.85h43.3a6.2,6.2,0,0,0,6.185-6.185V14.37A6.2,6.2,0,0,0,52.48,8.185Zm0,49.48H9.185V23.647h43.3Z" transform="translate(1087.399 34.341)" fill="#fdfdfe"/>
</svg>
