<svg id="Component_12_1" data-name="Component 12 – 1" xmlns="http://www.w3.org/2000/svg" width="93.186" height="93.186" viewBox="0 0 93.186 93.186">
  <g id="Path_295" data-name="Path 295" fill="#fff">
    <path d="M 82.53618621826172 92.68601989746094 L 10.64982986450195 92.68601989746094 C 5.053194522857666 92.68601989746094 0.5000061392784119 88.13282012939453 0.5000061392784119 82.53618621826172 L 0.5000061392784119 10.64982986450195 C 0.5000061392784119 5.053194522857666 5.053194522857666 0.5000061392784119 10.64982986450195 0.5000061392784119 L 82.53618621826172 0.5000061392784119 C 88.13282012939453 0.5000061392784119 92.68601989746094 5.053194522857666 92.68601989746094 10.64982986450195 L 92.68601989746094 82.53618621826172 C 92.68601989746094 88.13282012939453 88.13282012939453 92.68601989746094 82.53618621826172 92.68601989746094 Z" stroke="none"/>
    <path d="M 10.64981842041016 0.9999923706054688 C 5.328880310058594 0.9999923706054688 0.9999923706054688 5.328880310058594 0.9999923706054688 10.64981842041016 L 0.9999923706054688 82.53617858886719 C 0.9999923706054688 87.85711669921875 5.328880310058594 92.18600463867188 10.64981842041016 92.18600463867188 L 82.53617858886719 92.18600463867188 C 87.85711669921875 92.18600463867188 92.18600463867188 87.85711669921875 92.18600463867188 82.53617858886719 L 92.18600463867188 10.64981842041016 C 92.18600463867188 5.328880310058594 87.85711669921875 0.9999923706054688 82.53617858886719 0.9999923706054688 L 10.64981842041016 0.9999923706054688 M 10.64981842041016 -7.62939453125e-06 L 82.53617858886719 -7.62939453125e-06 C 88.41790771484375 -7.62939453125e-06 93.18600463867188 4.768096923828125 93.18600463867188 10.64981842041016 L 93.18600463867188 82.53617858886719 C 93.18600463867188 88.41790771484375 88.41790771484375 93.18600463867188 82.53617858886719 93.18600463867188 L 10.64981842041016 93.18600463867188 C 4.768096923828125 93.18600463867188 -7.62939453125e-06 88.41790771484375 -7.62939453125e-06 82.53617858886719 L -7.62939453125e-06 10.64981842041016 C -7.62939453125e-06 4.768096923828125 4.768096923828125 -7.62939453125e-06 10.64981842041016 -7.62939453125e-06 Z" stroke="none" fill="#e8e9ec"/>
  </g>
  <text id="_5" data-name="5" transform="translate(46.871 60)" fill="#4d4f5c" font-size="33" font-family="SourceSansPro-Regular, Source Sans Pro"><tspan x="-8.2" y="0">5</tspan></text>
</svg>
