<svg id="Nav_bar" data-name="Nav bar" xmlns="http://www.w3.org/2000/svg" width="1715.954" height="81.95" viewBox="0 0 1715.954 81.95">
  <text id="Notifications" transform="translate(1463.954 49.946)" fill="#8a8f9c" font-size="30" font-family="OpenSans-Semibold, Open Sans" font-weight="600"><tspan x="0" y="0">Notifications</tspan></text>
  <path id="Icon_material-notifications-none" data-name="Icon material-notifications-none" d="M18.482,34.175A3.13,3.13,0,0,0,21.6,31.055H15.362A3.13,3.13,0,0,0,18.482,34.175Zm9.362-9.362v-7.8c0-4.79-2.543-8.8-7.021-9.861V6.09a2.34,2.34,0,1,0-4.681,0V7.151c-4.462,1.061-7.021,5.055-7.021,9.861v7.8L6,27.934v1.56H30.964v-1.56Zm-3.121,1.56H12.241V17.012c0-3.869,2.356-7.021,6.241-7.021s6.241,3.152,6.241,7.021Z" transform="translate(1675.719 23.204)" fill="#8a8f9c"/>
  <!-- <g id="_24d018ecd7d367c7388e8edb78bd1e45" data-name="24d018ecd7d367c7388e8edb78bd1e45" transform="translate(0 0)">
    <path id="Path_74" data-name="Path 74" d="M76.047,82.608H7.119A6.522,6.522,0,0,1,.607,76.1V7.169A6.522,6.522,0,0,1,7.119.658H76.046a6.522,6.522,0,0,1,6.511,6.511V76.1A6.5,6.5,0,0,1,76.047,82.608Z" transform="translate(-0.607 -0.658)" fill="#ff5614"/>
    <circle id="Ellipse_85" data-name="Ellipse 85" cx="26.273" cy="26.273" r="26.273" transform="translate(14.702 8.585)" fill="#fff"/>
    <g id="Group_95" data-name="Group 95" transform="translate(8.212 66.066)">
      <path id="Path_75" data-name="Path 75" d="M11.955,85.941v2.53H10.628v-7.2h2.343a4.409,4.409,0,0,1,1.244.166,2.2,2.2,0,0,1,.871.477,1.754,1.754,0,0,1,.5.726,2.668,2.668,0,0,1,.166.933,2.788,2.788,0,0,1-.166.954,2.1,2.1,0,0,1-.518.747,2.526,2.526,0,0,1-.871.5,3.641,3.641,0,0,1-1.223.166Zm0-1.058h1a2.016,2.016,0,0,0,.643-.083,1.122,1.122,0,0,0,.726-.684,1.589,1.589,0,0,0,.083-.56,1.362,1.362,0,0,0-.083-.518,1.03,1.03,0,0,0-.27-.394,1.369,1.369,0,0,0-.456-.249,2.016,2.016,0,0,0-.643-.083h-1Z" transform="translate(-10.628 -81.275)" fill="#fff"/>
      <path id="Path_76" data-name="Path 76" d="M24.223,88.471H22.875V85.319H19.516v3.152H18.168v-7.2h1.348v3.09H22.9v-3.09h1.348v7.2Z" transform="translate(-11.989 -81.275)" fill="#fff"/>
      <path id="Path_77" data-name="Path 77" d="M33.518,88.475H32.481a.439.439,0,0,1-.29-.083.527.527,0,0,1-.166-.207l-.539-1.472H28.5l-.539,1.472a.392.392,0,0,1-.166.207.45.45,0,0,1-.29.1H26.468l2.82-7.2h1.369Zm-4.666-2.716h2.3l-.871-2.385A3.914,3.914,0,0,1,30.159,83c-.041-.145-.1-.311-.145-.477a3.2,3.2,0,0,1-.145.477c-.062.145-.083.27-.124.373Z" transform="translate(-13.487 -81.28)" fill="#fff"/>
      <path id="Path_78" data-name="Path 78" d="M37.355,85.651v2.82H36.007v-7.2h2.2a4.515,4.515,0,0,1,1.265.145,2.451,2.451,0,0,1,.871.435,1.564,1.564,0,0,1,.5.664,2.192,2.192,0,0,1,.166.829,2.367,2.367,0,0,1-.1.684,1.577,1.577,0,0,1-.311.581,1.768,1.768,0,0,1-.5.456,2.3,2.3,0,0,1-.684.311,1.375,1.375,0,0,1,.435.415l1.8,2.654h-1.2a.6.6,0,0,1-.29-.062.5.5,0,0,1-.207-.207l-1.514-2.3a.792.792,0,0,0-.187-.187.583.583,0,0,0-.311-.062l-.581.021Zm0-.954h.829a2.123,2.123,0,0,0,.664-.1,1.114,1.114,0,0,0,.456-.27,1.216,1.216,0,0,0,.27-.394,1.255,1.255,0,0,0,.083-.5,1.078,1.078,0,0,0-.353-.85,1.784,1.784,0,0,0-1.1-.29h-.85V84.7Z" transform="translate(-15.208 -81.275)" fill="#fff"/>
      <path id="Path_79" data-name="Path 79" d="M47.7,85.817c.041.124.1.228.145.353.041-.124.1-.228.145-.353a1.654,1.654,0,0,1,.166-.332L50.293,81.5c.021-.041.062-.083.083-.124a.452.452,0,0,1,.1-.062A.263.263,0,0,1,50.6,81.3h1.161v7.2H50.584V83.556c0-.1.021-.207.021-.311L48.427,87.33a.608.608,0,0,1-.187.207.588.588,0,0,1-.27.083h-.228a.382.382,0,0,1-.27-.083.454.454,0,0,1-.187-.207l-2.2-4.106a1.57,1.57,0,0,1,.021.311v4.935H43.927v-7.2h1.161c.041,0,.083.021.124.021.041.021.062.042.1.062a.318.318,0,0,1,.083.124l2.157,4C47.6,85.588,47.639,85.692,47.7,85.817Z" transform="translate(-16.638 -81.275)" fill="#fff"/>
      <path id="Path_80" data-name="Path 80" d="M61.377,88.475H60.34a.439.439,0,0,1-.29-.083.527.527,0,0,1-.166-.207l-.539-1.472H56.359l-.539,1.472a.392.392,0,0,1-.166.207.45.45,0,0,1-.29.1H54.327l2.82-7.2h1.369Zm-4.645-2.716h2.3l-.871-2.385A3.914,3.914,0,0,1,58.039,83c-.041-.145-.1-.311-.145-.477a3.2,3.2,0,0,1-.145.477c-.062.145-.083.27-.124.373Z" transform="translate(-18.515 -81.28)" fill="#fff"/>
    </g>
    <g id="Group_98" data-name="Group 98" transform="translate(20.965 13.396)">
      <path id="Path_81" data-name="Path 81" d="M72.744,49.443c-.539.311-1.223.643-1.97,1,.6.021,1.223.041,1.866.041l.1-1.037" transform="translate(-34.237 -22.859)" fill="#ff5614"/>
      <path id="Path_82" data-name="Path 82" d="M69.49,29.3c-.477,1.078-8.025,4.292-13.334,5.848-.954.27-1.846.5-2.592.643A10.4,10.4,0,0,1,51.532,36c-3.67,0-5.744-2.26-7.175-5.412a14.636,14.636,0,0,0,.747,2.468h0c.021.021.021.041.041.062a.02.02,0,0,0,.021.021,7.061,7.061,0,0,0,6.366,3.878h0a10.589,10.589,0,0,0,1.908-.187c.041,0,.083-.021.124-.021.767-.145,1.638-.373,2.592-.643,5.08-1.472,12.193-4.458,13.23-5.682h0l.1-1.182" transform="translate(-29.469 -19.224)" fill="#ff5614"/>
      <path id="Path_83" data-name="Path 83" d="M69.551,30.744c-1.037,1.223-8.149,4.209-13.23,5.682-.954.27-1.846.5-2.592.643-.041,0-.083.021-.124.021a10.768,10.768,0,0,1-1.908.187h0A7.061,7.061,0,0,1,45.33,33.4a.02.02,0,0,0-.021-.021c-.021-.021-.021-.041-.041-.062a20.421,20.421,0,0,0,1.369,2.862h0l.041.041.021.021.021.021h0A6.656,6.656,0,0,0,51.7,38.292h0a10.371,10.371,0,0,0,1.887-.187c.041,0,.062-.021.1-.021h.041c.767-.145,1.638-.373,2.592-.643,4.935-1.431,11.778-4.292,13.126-5.578h0l.1-1.12" transform="translate(-29.633 -19.484)" fill="#fff"/>
      <path id="Path_84" data-name="Path 84" d="M51.671,37.3h0m-6.366-3.878A7.061,7.061,0,0,0,51.671,37.3a7.061,7.061,0,0,1-6.366-3.878m-.062-.1h0c.021.021.021.041.041.062-.021,0-.021-.041-.041-.062m24.3-2.571c-1.037,1.223-8.149,4.209-13.23,5.682-.954.27-1.846.5-2.592.643-.041,0-.083.021-.124.021.041,0,.083-.021.124-.021.767-.145,1.638-.373,2.592-.643,5.08-1.452,12.172-4.458,13.23-5.682h0" transform="translate(-29.628 -19.484)" fill="#ff5614"/>
      <path id="Path_85" data-name="Path 85" d="M69.748,32.136C68.4,33.4,61.557,36.283,56.622,37.714c-.954.27-1.846.5-2.592.643h-.041c-.041,0-.062.021-.1.021A10.549,10.549,0,0,1,52,38.564h0a6.656,6.656,0,0,1-4.977-2.032h0L47,36.511l-.021-.021-.041-.041a17.4,17.4,0,0,0,1.452,2.2h0a.454.454,0,0,1,.1.062h0A6.916,6.916,0,0,0,52,39.6h0a10.4,10.4,0,0,0,2.032-.207h0c.767-.145,1.638-.373,2.592-.643,4.811-1.389,11.467-4.168,13.023-5.474h0l.1-1.141" transform="translate(-29.934 -19.735)" fill="#ff5614"/>
      <path id="Path_86" data-name="Path 86" d="M51.973,38.564h0m1.991-.187c-.041,0-.062.021-.1.021a.226.226,0,0,1,.1-.021m-6.988-1.866.021.021a.02.02,0,0,0-.021-.021m-.062-.062h0l.041.041-.041-.041m22.831-4.313C68.4,33.4,61.553,36.283,56.618,37.714c-.954.27-1.846.5-2.592.643h0c.767-.145,1.638-.373,2.592-.643,4.935-1.431,11.778-4.292,13.126-5.578h0" transform="translate(-29.93 -19.735)" fill="#a8cba6"/>
      <path id="Path_87" data-name="Path 87" d="M69.964,33.5c-1.555,1.327-8.212,4.085-13.022,5.474-.954.27-1.846.5-2.592.643h0a10.242,10.242,0,0,1-2.032.207h0a6.714,6.714,0,0,1-3.5-.892h0a.453.453,0,0,1-.1-.062A19.641,19.641,0,0,0,50.1,40.532h0a7.475,7.475,0,0,0,2.24.332h0a10,10,0,0,0,1.991-.207h.041c.767-.145,1.638-.373,2.592-.643,4.728-1.369,11.2-4.064,12.919-5.391h0l.083-1.12" transform="translate(-30.254 -19.982)" fill="#fff"/>
      <path id="Path_88" data-name="Path 88" d="M52.313,39.847h0m-3.629-.975h0a.453.453,0,0,1,.1.062.114.114,0,0,1-.1-.062M69.96,33.5c-1.555,1.327-8.212,4.085-13.023,5.474-.954.27-1.846.5-2.592.643h0c.767-.145,1.638-.373,2.592-.643C61.748,37.587,68.4,34.808,69.96,33.5h0" transform="translate(-30.25 -19.982)" fill="#a8cba6"/>
      <path id="Path_89" data-name="Path 89" d="M70.162,34.843c-1.721,1.348-8.212,4.023-12.919,5.391-.954.27-1.846.5-2.592.643H54.61a11.6,11.6,0,0,1-1.991.207h0a7.579,7.579,0,0,1-2.24-.332c.415.435.85.871,1.327,1.306h.187c.249.021.5.041.747.041h0a10.2,10.2,0,0,0,2.011-.207h0c.767-.145,1.638-.373,2.592-.643,4.624-1.348,10.97-3.961,12.836-5.329h0l.083-1.078" transform="translate(-30.556 -20.224)" fill="#ff5614"/>
      <path id="Path_90" data-name="Path 90" d="M52.594,41.106h0m-2.24-.332h0a7.475,7.475,0,0,0,2.24.332,6.957,6.957,0,0,1-2.24-.332m19.8-5.931c-1.721,1.348-8.212,4.023-12.919,5.391-.954.27-1.846.5-2.592.643h0c.767-.145,1.638-.373,2.592-.643,4.707-1.348,11.2-4.044,12.919-5.391h0" transform="translate(-30.551 -20.224)" fill="#a8cba6"/>
      <path id="Path_91" data-name="Path 91" d="M70.346,36.184c-1.866,1.369-8.191,3.981-12.836,5.329-.954.27-1.846.5-2.592.643h0a10.2,10.2,0,0,1-2.011.207h0c-.249,0-.5-.021-.747-.041h-.187A16.155,16.155,0,0,0,53.28,43.38h0a12.023,12.023,0,0,0,1.638-.187c.767-.145,1.638-.373,2.592-.643,4.562-1.327,10.741-3.857,12.732-5.246h0l.1-1.12" transform="translate(-30.843 -20.466)" fill="#fff"/>
      <path id="Path_92" data-name="Path 92" d="M52.911,42.364h0m-.747-.021c.249.021.5.041.747.041-.27-.021-.5-.021-.747-.041m-.1-.021h0m-.062,0h0m18.352-6.138c-1.866,1.369-8.191,3.981-12.836,5.329-.954.27-1.846.5-2.592.643h0c.767-.145,1.638-.373,2.592-.643,4.645-1.348,10.97-3.961,12.836-5.329h0" transform="translate(-30.848 -20.466)" fill="#a8cba6"/>
      <path id="Path_93" data-name="Path 93" d="M70.53,37.525c-1.991,1.389-8.17,3.94-12.732,5.246-.954.27-1.846.5-2.592.643a12.026,12.026,0,0,1-1.638.187c.415.311.829.6,1.286.892h0c.124-.021.228-.041.353-.062.767-.145,1.638-.373,2.592-.643,4.479-1.306,10.534-3.795,12.628-5.184h0l.1-1.078" transform="translate(-31.131 -20.708)" fill="#ff5614"/>
      <path id="Path_94" data-name="Path 94" d="M70.735,38.866c-2.074,1.41-8.149,3.878-12.629,5.184-.954.27-1.846.5-2.592.643-.124.021-.228.041-.353.062.415.27.829.518,1.286.767h0q.778-.187,1.68-.435c4.417-1.286,10.347-3.712,12.525-5.122h0l.083-1.1" transform="translate(-31.419 -20.95)" fill="#fff"/>
      <path id="Path_95" data-name="Path 95" d="M70.91,40.182c-2.177,1.41-8.129,3.836-12.525,5.122-.581.166-1.161.332-1.68.435.435.228.871.456,1.348.684h0a2.038,2.038,0,0,0,.332-.1,63.017,63.017,0,0,0,12.421-5.06h0l.1-1.078" transform="translate(-31.697 -21.188)" fill="#ff5614"/>
      <path id="Path_96" data-name="Path 96" d="M71.1,41.523a64.313,64.313,0,0,1-12.421,5.06c-.1.041-.228.062-.332.1.1.041.228.1.332.145.353.166.726.311,1.1.456h0A62.439,62.439,0,0,0,71.02,42.622h0l.083-1.1" transform="translate(-31.994 -21.43)" fill="#fff"/>
      <path id="Path_97" data-name="Path 97" d="M71.31,42.839A61.8,61.8,0,0,1,60.071,47.5c.5.187,1,.353,1.535.518h0a59.232,59.232,0,0,0,9.6-4.106h0l.1-1.078" transform="translate(-32.305 -21.667)" fill="#ff5614"/>
      <path id="Path_98" data-name="Path 98" d="M71.544,44.18a61.14,61.14,0,0,1-9.6,4.106c.518.166,1.078.311,1.638.435h0a54.878,54.878,0,0,0,7.859-3.463h0l.1-1.078" transform="translate(-32.643 -21.909)" fill="#fff"/>
      <path id="Path_99" data-name="Path 99" d="M71.827,45.5a55.958,55.958,0,0,1-7.859,3.463c.56.145,1.161.249,1.763.353h0a48.563,48.563,0,0,0,6.014-2.737h0l.083-1.078" transform="translate(-33.008 -22.147)" fill="#ff5614"/>
      <path id="Path_100" data-name="Path 100" d="M72.107,46.812a48.564,48.564,0,0,1-6.014,2.737c.6.1,1.223.187,1.887.27h0a38.038,38.038,0,0,0,4.044-1.928h0l.083-1.078" transform="translate(-33.392 -22.384)" fill="#fff"/>
      <path id="Path_101" data-name="Path 101" d="M72.414,48.128a42.593,42.593,0,0,1-4.044,1.928c.643.062,1.286.124,1.97.145h0c.747-.353,1.431-.684,1.97-1h0l.1-1.078" transform="translate(-33.803 -22.622)" fill="#ff5614"/>
      <g id="Group_97" data-name="Group 97" transform="translate(0 15.304)">
        <g id="Group_96" data-name="Group 96" transform="translate(0 0)">
          <path id="Path_102" data-name="Path 102" d="M27.786,35.678l-1.6,17.543c.477-1.078,8.025-4.292,13.334-5.848.954-.27,1.846-.5,2.592-.643a10.4,10.4,0,0,1,2.032-.207c3.67,0,5.744,2.26,7.175,5.412A20.43,20.43,0,0,0,39.5,37.918a28.388,28.388,0,0,0-11.716-2.24" transform="translate(-26.189 -35.678)" fill="#ff5614"/>
        </g>
      </g>
      <path id="Path_103" data-name="Path 103" d="M55.818,17V32.95c-.954.27-1.846.5-2.592.643-4.977.954-7.527-1.514-9.207-5.2h0c-1.41-3.09-1.535-9.02-1.535-10.845V17Z" transform="translate(-29.131 -17.004)" fill="#ff5614"/>
      <path id="Path_104" data-name="Path 104" d="M42.46,17v0Z" transform="translate(-29.126 -17.004)" fill="rgba(0,0,0,0)"/>
      <path id="Path_105" data-name="Path 105" d="M55.818,65.144v.539H42.485V49.737c.954-.27,1.846-.5,2.592-.643,4.977-.954,7.527,1.514,9.207,5.2h0C55.694,57.41,55.818,63.34,55.818,65.144Z" transform="translate(-29.131 -22.759)" fill="#ff5614"/>
    </g>
    <g id="Group_99" data-name="Group 99" transform="translate(53.002 65.859)">
      <path id="Path_106" data-name="Path 106" d="M70.7,81.119a.358.358,0,0,0-.27.1,1.339,1.339,0,0,0-.166.187l-.622,1.14h0l-.477.871-.228.415-.124.249c-.021.041-.041.1-.062.145a2.766,2.766,0,0,0-.145.373,1.475,1.475,0,0,0-.166-.373c-.021-.021-.021-.062-.041-.083a2.478,2.478,0,0,0-.166-.332l-.124-.228-.394-.705-.332-.6-.394-.726-.083-.145a.564.564,0,0,0-.166-.207.382.382,0,0,0-.27-.083H65.283l.394.643h0l.145.249h0l.27.456.373.6h0l.415.705h0l.332.56.415.705.29.477v2.8h1.327v-2.8l.021-.021.477-.809.5-.871h0l.373-.664h0l.518-.85.705-1.2-1.14.021Z" transform="translate(-65.283 -81.036)" fill="#fff"/>
      <path id="Path_107" data-name="Path 107" d="M73.634,82.909c-.062.1-.1.228-.166.332-.041.1-.062.207-.1.311-.041.124-.062.249-.1.394h0a1.344,1.344,0,0,0-.041.415l1.41-.228a1.792,1.792,0,0,1,.124-.477,1.606,1.606,0,0,1,.145-.332,1.477,1.477,0,0,1,.311-.456,1.427,1.427,0,0,1,.27-.228Zm5.5,1.97a2.291,2.291,0,0,1-.124.767l1.431-.228h0a4.051,4.051,0,0,0,.062-.705v-.062Zm0,0a2.291,2.291,0,0,1-.124.767l1.431-.228h0a4.051,4.051,0,0,0,.062-.705v-.062Zm-.1.767h0l1.431-.228Zm0,0a.3.3,0,0,0-.042.124A.3.3,0,0,1,79.026,85.646Zm1.41-1.763a3.282,3.282,0,0,0-.187-.643c0-.021-.021-.021-.021-.041a3.233,3.233,0,0,0-.373-.705,1.7,1.7,0,0,0-.353-.415l-.124-.124a2.92,2.92,0,0,0-.954-.622.1.1,0,0,0-.062-.021,3.834,3.834,0,0,0-1.493-.29,3.9,3.9,0,0,0-1.493.27,3.7,3.7,0,0,0-1.1.705l-.021.021c-.021,0-.021,0-.021.021h0v.021l-.187.187a1.812,1.812,0,0,0-.166.207,1.792,1.792,0,0,0-.145.207.454.454,0,0,0-.062.1h0a1.012,1.012,0,0,0-.062.145c-.062.1-.1.228-.166.332-.041.1-.062.207-.1.311-.041.124-.062.249-.1.394h0a1.344,1.344,0,0,0-.041.415,2.011,2.011,0,0,0-.021.353,2.253,2.253,0,0,0,.021.373c0,.062.021.124.021.187.021.1.041.228.062.332v.021h0v.021c.021.062.021.1.041.166a1.555,1.555,0,0,0,.1.332c.062.124.1.249.166.373a3.837,3.837,0,0,0,.477.705.452.452,0,0,1,.083.1,2.2,2.2,0,0,0,.477.394,1.816,1.816,0,0,0,.207.124c.021,0,.021.021.041.021.021.021.021.021.041.021.021.021.021.021.041.021l.021.021h0c.021,0,.021.021.041.021s.021,0,.041.021a.072.072,0,0,0,.041.021c.021,0,.021.021.041.021.021.021.062.021.083.041.041.021.062.021.1.041.021.021.041.021.083.021.021.021.021.021.041.021l.021.021a.02.02,0,0,1,.021.021,1.727,1.727,0,0,0,.311.083c.062.021.1.021.166.041h0a3.517,3.517,0,0,0,.829.083,3.555,3.555,0,0,0,1.493-.29,4.073,4.073,0,0,0,.518-.27h0a2.648,2.648,0,0,0,.6-.477,2.569,2.569,0,0,0,.373-.456,3.131,3.131,0,0,0,.332-.643h0c.021-.021.021-.041.041-.062.083-.228.145-.5.207-.747a4.049,4.049,0,0,0,.062-.705v-.062A1.685,1.685,0,0,0,80.436,83.884Zm-1.908,2.675a1.689,1.689,0,0,1-.705.5,2.368,2.368,0,0,1-.954.166,2.7,2.7,0,0,1-.954-.166c-.062-.021-.124-.062-.187-.083h0a2.081,2.081,0,0,1-.539-.415L75,86.31h0a3.266,3.266,0,0,1-.27-.539c-.021-.062-.041-.1-.062-.166a2.862,2.862,0,0,1-.1-.767h0v-.145a5.1,5.1,0,0,1,.041-.581,1.793,1.793,0,0,1,.124-.477,1.607,1.607,0,0,1,.145-.332,1.476,1.476,0,0,1,.311-.456,1.426,1.426,0,0,1,.27-.228,2.031,2.031,0,0,1,.456-.27,2.305,2.305,0,0,1,.954-.166,2.628,2.628,0,0,1,.705.083c.083.021.166.062.249.083a1.888,1.888,0,0,1,.6.394l.124.124a2.781,2.781,0,0,1,.373.581.742.742,0,0,1,.083.228,2.728,2.728,0,0,1,.1.477,5.478,5.478,0,0,1,.041.6v.187a2.29,2.29,0,0,1-.124.767h0a.3.3,0,0,0-.041.124,2.175,2.175,0,0,1-.415.747C78.57,86.517,78.549,86.538,78.528,86.559Zm.6-1.68a2.291,2.291,0,0,1-.124.767l1.431-.228h0a4.051,4.051,0,0,0,.062-.705v-.062Zm0,0a2.291,2.291,0,0,1-.124.767l1.431-.228h0a4.051,4.051,0,0,0,.062-.705v-.062Zm-5.5-1.97c-.062.1-.1.228-.166.332-.041.1-.062.207-.1.311-.041.124-.062.249-.1.394h0a1.344,1.344,0,0,0-.041.415l1.41-.228a1.792,1.792,0,0,1,.124-.477,1.606,1.606,0,0,1,.145-.332,1.477,1.477,0,0,1,.311-.456,1.427,1.427,0,0,1,.27-.228Z" transform="translate(-66.708 -81.022)" fill="#fff"/>
      <path id="Path_108" data-name="Path 108" d="M87.958,81.119v4.313a2.826,2.826,0,0,1-.041.435c-.021.1-.062.207-.083.29a1.5,1.5,0,0,1-.29.539h0a.02.02,0,0,0-.021.021,1.331,1.331,0,0,1-.518.373,1.827,1.827,0,0,1-.684.124,1.937,1.937,0,0,1-.705-.124.276.276,0,0,1-.1-.062A.866.866,0,0,1,85.2,86.8c-.041-.021-.062-.062-.083-.083-.041-.062-.1-.1-.124-.166a.841.841,0,0,1-.1-.187,1.963,1.963,0,0,1-.166-.56,2.512,2.512,0,0,1-.021-.394V81.1H83.376v4.624a1.6,1.6,0,0,0,.041.311,5.563,5.563,0,0,0,.145.56h0a2.537,2.537,0,0,0,.373.705c.062.083.145.166.207.249.083.083.187.166.27.249a2.908,2.908,0,0,0,.664.373,3.3,3.3,0,0,0,.684.187,4.736,4.736,0,0,0,.56.041,3.407,3.407,0,0,0,1.244-.228c.124-.062.228-.1.353-.166a2.1,2.1,0,0,0,.581-.456,2.234,2.234,0,0,0,.373-.5,1.815,1.815,0,0,0,.207-.456,1.009,1.009,0,0,1,.062-.145h0a2.812,2.812,0,0,0,.124-.6c0-.062.021-.145.021-.207V81.1l-1.327.021Z" transform="translate(-68.549 -81.036)" fill="#fff"/>
      <path id="Path_109" data-name="Path 109" d="M70.71,84.438l-.518.871-2.115.353-.415-.705,1.182-.187c.021.021.021.062.041.083.062.124.1.249.166.373a2.766,2.766,0,0,1,.145-.373,1.014,1.014,0,0,1,.062-.145l1.452-.27Z" transform="translate(-65.713 -81.639)" fill="#ff5614"/>
      <path id="Path_110" data-name="Path 110" d="M73.369,84.055l1.514-.249a1.606,1.606,0,0,0-.145.332,3.2,3.2,0,0,0-.124.477l-1.41.228a2.811,2.811,0,0,1,.041-.415h0A1.319,1.319,0,0,0,73.369,84.055Z" transform="translate(-66.713 -81.525)" fill="#ff5614"/>
      <path id="Path_111" data-name="Path 111" d="M81.006,82.819a3.8,3.8,0,0,1,.373.705l-1.327.228a1.555,1.555,0,0,0-.373-.581l-.124-.124Z" transform="translate(-67.859 -81.347)" fill="#ff5614"/>
      <path id="Path_112" data-name="Path 112" d="M83.325,82.419l1.327-.207v.767l-1.327.228Z" transform="translate(-68.54 -81.237)" fill="#ff5614"/>
      <path id="Path_113" data-name="Path 113" d="M90.295,81.275v.767l-1.327.228V81.5Z" transform="translate(-69.558 -81.068)" fill="#ff5614"/>
      <path id="Path_114" data-name="Path 114" d="M68,83.274l.394.705-1.223.207-.415-.726Z" transform="translate(-65.548 -81.429)" fill="#ff5614"/>
      <path id="Path_115" data-name="Path 115" d="M72.052,82.566l-.518.871-1.493.249.456-.871Z" transform="translate(-66.142 -81.301)" fill="#ff5614"/>
      <path id="Path_116" data-name="Path 116" d="M79.474,82.019l-1.825.29a2.628,2.628,0,0,0-.705-.083,2.7,2.7,0,0,0-.954.166,3.3,3.3,0,0,0-.456.27l-1.825.29.062-.124a2.9,2.9,0,0,1,.539-.705V82.1l.041-.041,4.147-.684A2.956,2.956,0,0,1,79.474,82.019Z" transform="translate(-66.804 -81.086)" fill="#ff5614"/>
      <path id="Path_117" data-name="Path 117" d="M67.49,82.36l-1.286.207-.27-.435-.145-.27h0l1.306-.207Z" transform="translate(-65.375 -81.136)" fill="#ff5614"/>
      <path id="Path_118" data-name="Path 118" d="M75.025,89.033l5.184-.85a2.568,2.568,0,0,1-.373.456,2.263,2.263,0,0,1-.6.477h0l-2.841.477h-.021a3.209,3.209,0,0,1-.477-.124,1.012,1.012,0,0,1-.145-.062,1.392,1.392,0,0,1-.249-.124.157.157,0,0,1-.083-.041.9.9,0,0,1-.145-.083A1.377,1.377,0,0,1,75.025,89.033Z" transform="translate(-67.042 -82.315)" fill="#ff5614"/>
      <path id="Path_119" data-name="Path 119" d="M85.543,88.21l-1.6.27a2.089,2.089,0,0,1-.373-.705l-.021-.021,1.327-.228a1.466,1.466,0,0,0,.249.373A1.282,1.282,0,0,0,85.543,88.21Z" transform="translate(-68.581 -82.196)" fill="#ff5614"/>
      <path id="Path_120" data-name="Path 120" d="M88.436,87.955Z" transform="translate(-69.462 -82.274)" fill="#98df5f"/>
      <path id="Path_121" data-name="Path 121" d="M90.2,86.64a3.48,3.48,0,0,1-.145.809l-1.6.27a1.5,1.5,0,0,0,.29-.539,2.129,2.129,0,0,1,.083-.29Z" transform="translate(-69.467 -82.036)" fill="#ff5614"/>
      <path id="Path_122" data-name="Path 122" d="M68.522,86.7l1.348-.207h-.021v.767l-1.327.228Z" transform="translate(-65.868 -82.009)" fill="#ff5614"/>
      <path id="Path_123" data-name="Path 123" d="M74.6,85.7a2.982,2.982,0,0,0,.1.767h0l-1.327.228a.488.488,0,0,1-.041-.166.076.076,0,0,0-.021-.062c-.021-.1-.041-.228-.062-.332,0-.062-.021-.124-.021-.187Z" transform="translate(-66.718 -81.867)" fill="#ff5614"/>
      <path id="Path_124" data-name="Path 124" d="M81.742,84.514a4.574,4.574,0,0,1,.083.767h0l-1.369.228v-.187a5.477,5.477,0,0,0-.041-.6Z" transform="translate(-68.015 -81.653)" fill="#ff5614"/>
      <path id="Path_125" data-name="Path 125" d="M83.325,84.261l1.327-.228v.788l-1.327.207Z" transform="translate(-68.54 -81.566)" fill="#ff5614"/>
      <path id="Path_126" data-name="Path 126" d="M90.295,83.1v.788l-1.327.228v-.788Z" transform="translate(-69.558 -81.397)" fill="#ff5614"/>
      <path id="Path_127" data-name="Path 127" d="M68.522,88.563l1.327-.228v.788l-1.327.228Z" transform="translate(-65.868 -82.342)" fill="#ff5614"/>
      <path id="Path_128" data-name="Path 128" d="M75.834,88.138h0l-1.6.27a3.244,3.244,0,0,1-.477-.705l1.348-.228.187.249a2.5,2.5,0,0,0,.539.415Z" transform="translate(-66.813 -82.187)" fill="#ff5614"/>
      <path id="Path_129" data-name="Path 129" d="M81.649,86.387h0a3.931,3.931,0,0,1-.187.747c0,.021-.021.041-.041.062h0l-1.638.27a2.582,2.582,0,0,0,.415-.747.3.3,0,0,1,.041-.124Z" transform="translate(-67.9 -81.991)" fill="#ff5614"/>
      <path id="Path_130" data-name="Path 130" d="M84.652,86.279c0,.145.021.27.021.394l-1.306.228a2.836,2.836,0,0,1-.041-.6v-.166l1.327-.228Z" transform="translate(-68.54 -81.904)" fill="#ff5614"/>
      <path id="Path_131" data-name="Path 131" d="M90.295,84.97v.788l-1.327.207V85.2Z" transform="translate(-69.558 -81.735)" fill="#ff5614"/>
      <path id="Path_132" data-name="Path 132" d="M89.1,88.36a2.233,2.233,0,0,1-.373.5,3.132,3.132,0,0,1-.581.456l-2.136.353a3.3,3.3,0,0,1-.684-.187,2.909,2.909,0,0,1-.664-.373Z" transform="translate(-68.782 -82.347)" fill="#ff5614"/>
    </g>
  </g> -->
  <!-- <g id="Group_2960" data-name="Group 2960" transform="translate(1695.129 19.946)">
    <rect id="Rectangle_157" data-name="Rectangle 157" width="21" height="21" rx="10.5" transform="translate(-0.176)" fill="#ff5614"/>
    <text id="_3" data-name="3" transform="translate(9.824 15)" fill="#fff" font-size="13" font-family="SourceSansPro-Regular, Source Sans Pro"><tspan x="-3.23" y="0">3</tspan></text>
  </g> -->
</svg>
